<svg xmlns="http://www.w3.org/2000/svg" viewBox="0 0 480 300" width="480" height="300" role="img" aria-label="Apparel Production Calendar Gantt chart template preview">
  <rect width="480" height="300" fill="#ffffff"/>
  <rect x="0" y="46" width="480" height="254" fill="#f8fafc"/>
  <rect x="0" y="46" width="156" height="254" fill="#ffffff"/>
  <line x1="224.0" y1="46" x2="224.0" y2="292" stroke="#eef1f6" stroke-width="1"/><line x1="284.0" y1="46" x2="284.0" y2="292" stroke="#eef1f6" stroke-width="1"/><line x1="344.0" y1="46" x2="344.0" y2="292" stroke="#eef1f6" stroke-width="1"/><line x1="404.0" y1="46" x2="404.0" y2="292" stroke="#eef1f6" stroke-width="1"/>
  <line x1="156" y1="46" x2="156" y2="300" stroke="#e2e8f0" stroke-width="1"/>
  <rect width="480" height="46" fill="#db2777"/>
  <text x="16" y="29" font-family="Segoe UI, Helvetica, Arial, sans-serif" font-size="16" font-weight="700" fill="#ffffff">Apparel Production Calendar</text>
  <text x="464" y="28" text-anchor="end" font-family="Segoe UI, Helvetica, Arial, sans-serif" font-size="10.5" fill="#ffffffcc">gantts.app</text>
  <text x="14" y="77.8" font-family="Segoe UI, Helvetica, Arial, sans-serif" font-size="10.5" font-weight="700" fill="#0f172a">Concept &amp; design</text><rect x="164.0" y="70.3" width="84.9" height="8" rx="2" fill="#475569"/><text x="25" y="106.3" font-family="Segoe UI, Helvetica, Arial, sans-serif" font-size="10.5" font-weight="400" fill="#334155">Range plan &amp; desi…</text><rect x="164.0" y="95.8" width="50.9" height="14" rx="4" fill="#64748B"/><rect x="164.0" y="95.8" width="50.9" height="14" rx="4" fill="#000" opacity="0.17"/><text x="14" y="134.8" font-family="Segoe UI, Helvetica, Arial, sans-serif" font-size="10.5" font-weight="400" fill="#334155">Tech pack issued</text><rect x="242.9" y="125.3" width="12" height="12" rx="2.5" transform="rotate(45 248.9 131.3)" fill="#db2777"/><text x="14" y="163.3" font-family="Segoe UI, Helvetica, Arial, sans-serif" font-size="10.5" font-weight="700" fill="#0f172a">Sampling</text><rect x="248.9" y="155.8" width="212.3" height="8" rx="2" fill="#475569"/><text x="25" y="191.8" font-family="Segoe UI, Helvetica, Arial, sans-serif" font-size="10.5" font-weight="400" fill="#334155">Proto sample</text><rect x="248.9" y="181.3" width="62.3" height="14" rx="4" fill="#DB2777"/><rect x="248.9" y="181.3" width="62.3" height="14" rx="4" fill="#000" opacity="0.17"/><text x="25" y="220.3" font-family="Segoe UI, Helvetica, Arial, sans-serif" font-size="10.5" font-weight="400" fill="#334155">Fit sample &amp; comm…</text><rect x="311.2" y="209.8" width="70.8" height="14" rx="4" fill="#EC4899"/><rect x="311.2" y="209.8" width="42.5" height="14" rx="4" fill="#000" opacity="0.17"/><text x="25" y="248.8" font-family="Segoe UI, Helvetica, Arial, sans-serif" font-size="10.5" font-weight="400" fill="#334155">PP sample</text><rect x="381.9" y="238.3" width="79.2" height="14" rx="4" fill="#F472B6"/><rect x="381.9" y="238.3" width="15.8" height="14" rx="4" fill="#000" opacity="0.17"/><text x="14" y="277.3" font-family="Segoe UI, Helvetica, Arial, sans-serif" font-size="10.5" font-weight="400" fill="#334155">PP sample approved</text><rect x="455.2" y="267.8" width="12" height="12" rx="2.5" transform="rotate(45 461.2 273.8)" fill="#db2777"/>
</svg>