<svg xmlns="http://www.w3.org/2000/svg" viewBox="0 0 480 300" width="480" height="300" role="img" aria-label="Call Center Setup Plan Gantt chart template preview">
  <rect width="480" height="300" fill="#ffffff"/>
  <rect x="0" y="46" width="480" height="254" fill="#f8fafc"/>
  <rect x="0" y="46" width="156" height="254" fill="#ffffff"/>
  <line x1="224.0" y1="46" x2="224.0" y2="292" stroke="#eef1f6" stroke-width="1"/><line x1="284.0" y1="46" x2="284.0" y2="292" stroke="#eef1f6" stroke-width="1"/><line x1="344.0" y1="46" x2="344.0" y2="292" stroke="#eef1f6" stroke-width="1"/><line x1="404.0" y1="46" x2="404.0" y2="292" stroke="#eef1f6" stroke-width="1"/>
  <line x1="156" y1="46" x2="156" y2="300" stroke="#e2e8f0" stroke-width="1"/>
  <rect width="480" height="46" fill="#2563eb"/>
  <text x="16" y="29" font-family="Segoe UI, Helvetica, Arial, sans-serif" font-size="16" font-weight="700" fill="#ffffff">Call Center Setup Plan</text>
  <text x="464" y="28" text-anchor="end" font-family="Segoe UI, Helvetica, Arial, sans-serif" font-size="10.5" fill="#ffffffcc">gantts.app</text>
  <text x="14" y="77.8" font-family="Segoe UI, Helvetica, Arial, sans-serif" font-size="10.5" font-weight="700" fill="#0f172a">Operating model &amp; s…</text><rect x="164.0" y="70.3" width="93.8" height="8" rx="2" fill="#475569"/><text x="25" y="106.3" font-family="Segoe UI, Helvetica, Arial, sans-serif" font-size="10.5" font-weight="400" fill="#334155">Channel mix &amp; hou…</text><rect x="164.0" y="95.8" width="37.5" height="14" rx="4" fill="#64748B"/><rect x="164.0" y="95.8" width="37.5" height="14" rx="4" fill="#000" opacity="0.17"/><text x="25" y="134.8" font-family="Segoe UI, Helvetica, Arial, sans-serif" font-size="10.5" font-weight="400" fill="#334155">Site, remote or h…</text><rect x="192.1" y="124.3" width="37.5" height="14" rx="4" fill="#94A3B8"/><rect x="192.1" y="124.3" width="37.5" height="14" rx="4" fill="#000" opacity="0.17"/><text x="25" y="163.3" font-family="Segoe UI, Helvetica, Arial, sans-serif" font-size="10.5" font-weight="400" fill="#334155">Headcount &amp; cost …</text><rect x="220.3" y="152.8" width="37.5" height="14" rx="4" fill="#64748B"/><rect x="220.3" y="152.8" width="37.5" height="14" rx="4" fill="#000" opacity="0.17"/><text x="14" y="191.8" font-family="Segoe UI, Helvetica, Arial, sans-serif" font-size="10.5" font-weight="400" fill="#334155">Operating model app…</text><rect x="251.8" y="182.3" width="12" height="12" rx="2.5" transform="rotate(45 257.8 188.3)" fill="#2563eb"/><text x="14" y="220.3" font-family="Segoe UI, Helvetica, Arial, sans-serif" font-size="10.5" font-weight="700" fill="#0f172a">Technology &amp; teleph…</text><rect x="257.8" y="212.8" width="206.3" height="8" rx="2" fill="#475569"/><text x="25" y="248.8" font-family="Segoe UI, Helvetica, Arial, sans-serif" font-size="10.5" font-weight="400" fill="#334155">CCaaS selection &amp;…</text><rect x="257.8" y="238.3" width="75.0" height="14" rx="4" fill="#2563EB"/><rect x="257.8" y="238.3" width="75.0" height="14" rx="4" fill="#000" opacity="0.17"/><text x="25" y="277.3" font-family="Segoe UI, Helvetica, Arial, sans-serif" font-size="10.5" font-weight="400" fill="#334155">Number provisioni…</text><rect x="304.6" y="266.8" width="121.9" height="14" rx="4" fill="#3B82F6"/><rect x="304.6" y="266.8" width="60.9" height="14" rx="4" fill="#000" opacity="0.17"/>
</svg>