<svg xmlns="http://www.w3.org/2000/svg" viewBox="0 0 480 300" width="480" height="300" role="img" aria-label="Construction Schedule Gantt chart template preview">
  <rect width="480" height="300" fill="#ffffff"/>
  <rect x="0" y="46" width="480" height="254" fill="#f8fafc"/>
  <rect x="0" y="46" width="156" height="254" fill="#ffffff"/>
  <line x1="224.0" y1="46" x2="224.0" y2="292" stroke="#eef1f6" stroke-width="1"/><line x1="284.0" y1="46" x2="284.0" y2="292" stroke="#eef1f6" stroke-width="1"/><line x1="344.0" y1="46" x2="344.0" y2="292" stroke="#eef1f6" stroke-width="1"/><line x1="404.0" y1="46" x2="404.0" y2="292" stroke="#eef1f6" stroke-width="1"/>
  <line x1="156" y1="46" x2="156" y2="300" stroke="#e2e8f0" stroke-width="1"/>
  <rect width="480" height="46" fill="#ea580c"/>
  <text x="16" y="29" font-family="Segoe UI, Helvetica, Arial, sans-serif" font-size="16" font-weight="700" fill="#ffffff">Construction Schedule</text>
  <text x="464" y="28" text-anchor="end" font-family="Segoe UI, Helvetica, Arial, sans-serif" font-size="10.5" fill="#ffffffcc">gantts.app</text>
  <text x="14" y="77.8" font-family="Segoe UI, Helvetica, Arial, sans-serif" font-size="10.5" font-weight="700" fill="#0f172a">Pre-construction</text><rect x="164.0" y="70.3" width="92.3" height="8" rx="2" fill="#475569"/><text x="25" y="106.3" font-family="Segoe UI, Helvetica, Arial, sans-serif" font-size="10.5" font-weight="400" fill="#334155">Permits &amp; approva…</text><rect x="164.0" y="95.8" width="55.4" height="14" rx="4" fill="#64748B"/><rect x="164.0" y="95.8" width="55.4" height="14" rx="4" fill="#000" opacity="0.17"/><text x="25" y="134.8" font-family="Segoe UI, Helvetica, Arial, sans-serif" font-size="10.5" font-weight="400" fill="#334155">Site survey</text><rect x="200.9" y="124.3" width="27.7" height="14" rx="4" fill="#64748B"/><rect x="200.9" y="124.3" width="27.7" height="14" rx="4" fill="#000" opacity="0.17"/><text x="14" y="163.3" font-family="Segoe UI, Helvetica, Arial, sans-serif" font-size="10.5" font-weight="700" fill="#0f172a">Foundation</text><rect x="256.3" y="155.8" width="69.2" height="8" rx="2" fill="#475569"/><text x="25" y="191.8" font-family="Segoe UI, Helvetica, Arial, sans-serif" font-size="10.5" font-weight="400" fill="#334155">Excavation</text><rect x="256.3" y="181.3" width="27.7" height="14" rx="4" fill="#EA580C"/><rect x="256.3" y="181.3" width="16.6" height="14" rx="4" fill="#000" opacity="0.17"/><text x="25" y="220.3" font-family="Segoe UI, Helvetica, Arial, sans-serif" font-size="10.5" font-weight="400" fill="#334155">Pour foundation</text><rect x="284.0" y="209.8" width="41.5" height="14" rx="4" fill="#F97316"/><text x="14" y="248.8" font-family="Segoe UI, Helvetica, Arial, sans-serif" font-size="10.5" font-weight="700" fill="#0f172a">Structure</text><rect x="325.5" y="241.3" width="138.5" height="8" rx="2" fill="#475569"/><text x="25" y="277.3" font-family="Segoe UI, Helvetica, Arial, sans-serif" font-size="10.5" font-weight="400" fill="#334155">Framing</text><rect x="325.5" y="266.8" width="64.6" height="14" rx="4" fill="#2563EB"/>
</svg>