<svg xmlns="http://www.w3.org/2000/svg" viewBox="0 0 480 300" width="480" height="300" role="img" aria-label="Event Timeline Gantt chart template preview">
  <rect width="480" height="300" fill="#ffffff"/>
  <rect x="0" y="46" width="480" height="254" fill="#f8fafc"/>
  <rect x="0" y="46" width="156" height="254" fill="#ffffff"/>
  <line x1="224.0" y1="46" x2="224.0" y2="292" stroke="#eef1f6" stroke-width="1"/><line x1="284.0" y1="46" x2="284.0" y2="292" stroke="#eef1f6" stroke-width="1"/><line x1="344.0" y1="46" x2="344.0" y2="292" stroke="#eef1f6" stroke-width="1"/><line x1="404.0" y1="46" x2="404.0" y2="292" stroke="#eef1f6" stroke-width="1"/>
  <line x1="156" y1="46" x2="156" y2="300" stroke="#e2e8f0" stroke-width="1"/>
  <rect width="480" height="46" fill="#0ea5e9"/>
  <text x="16" y="29" font-family="Segoe UI, Helvetica, Arial, sans-serif" font-size="16" font-weight="700" fill="#ffffff">Event Timeline</text>
  <text x="464" y="28" text-anchor="end" font-family="Segoe UI, Helvetica, Arial, sans-serif" font-size="10.5" fill="#ffffffcc">gantts.app</text>
  <text x="14" y="77.8" font-family="Segoe UI, Helvetica, Arial, sans-serif" font-size="10.5" font-weight="700" fill="#0f172a">Planning</text><rect x="164.0" y="70.3" width="105.0" height="8" rx="2" fill="#475569"/><text x="25" y="106.3" font-family="Segoe UI, Helvetica, Arial, sans-serif" font-size="10.5" font-weight="400" fill="#334155">Set budget &amp; goals</text><rect x="164.0" y="95.8" width="22.5" height="14" rx="4" fill="#2563EB"/><rect x="164.0" y="95.8" width="22.5" height="14" rx="4" fill="#000" opacity="0.17"/><text x="25" y="134.8" font-family="Segoe UI, Helvetica, Arial, sans-serif" font-size="10.5" font-weight="400" fill="#334155">Book venue</text><rect x="186.5" y="124.3" width="37.5" height="14" rx="4" fill="#0EA5E9"/><rect x="186.5" y="124.3" width="30.0" height="14" rx="4" fill="#000" opacity="0.17"/><text x="25" y="163.3" font-family="Segoe UI, Helvetica, Arial, sans-serif" font-size="10.5" font-weight="400" fill="#334155">Confirm speakers</text><rect x="201.5" y="152.8" width="67.5" height="14" rx="4" fill="#6366F1"/><rect x="201.5" y="152.8" width="27.0" height="14" rx="4" fill="#000" opacity="0.17"/><text x="14" y="191.8" font-family="Segoe UI, Helvetica, Arial, sans-serif" font-size="10.5" font-weight="700" fill="#0f172a">Promotion</text><rect x="269.0" y="184.3" width="157.5" height="8" rx="2" fill="#475569"/><text x="25" y="220.3" font-family="Segoe UI, Helvetica, Arial, sans-serif" font-size="10.5" font-weight="400" fill="#334155">Website &amp; tickets</text><rect x="269.0" y="209.8" width="52.5" height="14" rx="4" fill="#F97316"/><rect x="269.0" y="209.8" width="10.5" height="14" rx="4" fill="#000" opacity="0.17"/><text x="25" y="248.8" font-family="Segoe UI, Helvetica, Arial, sans-serif" font-size="10.5" font-weight="400" fill="#334155">Email + social pu…</text><rect x="299.0" y="238.3" width="127.5" height="14" rx="4" fill="#A855F7"/><rect x="299.0" y="238.3" width="6.4" height="14" rx="4" fill="#000" opacity="0.17"/><text x="14" y="277.3" font-family="Segoe UI, Helvetica, Arial, sans-serif" font-size="10.5" font-weight="700" fill="#0f172a">Logistics</text><rect x="389.0" y="269.8" width="75.0" height="8" rx="2" fill="#475569"/>
</svg>