<svg xmlns="http://www.w3.org/2000/svg" viewBox="0 0 480 300" width="480" height="300" role="img" aria-label="Hotel Refurbishment Schedule Gantt chart template preview">
  <rect width="480" height="300" fill="#ffffff"/>
  <rect x="0" y="46" width="480" height="254" fill="#f8fafc"/>
  <rect x="0" y="46" width="156" height="254" fill="#ffffff"/>
  <line x1="224.0" y1="46" x2="224.0" y2="292" stroke="#eef1f6" stroke-width="1"/><line x1="284.0" y1="46" x2="284.0" y2="292" stroke="#eef1f6" stroke-width="1"/><line x1="344.0" y1="46" x2="344.0" y2="292" stroke="#eef1f6" stroke-width="1"/><line x1="404.0" y1="46" x2="404.0" y2="292" stroke="#eef1f6" stroke-width="1"/>
  <line x1="156" y1="46" x2="156" y2="300" stroke="#e2e8f0" stroke-width="1"/>
  <rect width="480" height="46" fill="#b45309"/>
  <text x="16" y="29" font-family="Segoe UI, Helvetica, Arial, sans-serif" font-size="16" font-weight="700" fill="#ffffff">Hotel Refurbishment Schedule</text>
  <text x="464" y="28" text-anchor="end" font-family="Segoe UI, Helvetica, Arial, sans-serif" font-size="10.5" fill="#ffffffcc">gantts.app</text>
  <text x="14" y="77.8" font-family="Segoe UI, Helvetica, Arial, sans-serif" font-size="10.5" font-weight="700" fill="#0f172a">Feasibility &amp; reven…</text><rect x="164.0" y="70.3" width="83.3" height="8" rx="2" fill="#475569"/><text x="25" y="106.3" font-family="Segoe UI, Helvetica, Arial, sans-serif" font-size="10.5" font-weight="400" fill="#334155">Condition survey …</text><rect x="164.0" y="95.8" width="33.3" height="14" rx="4" fill="#64748B"/><rect x="164.0" y="95.8" width="33.3" height="14" rx="4" fill="#000" opacity="0.17"/><text x="25" y="134.8" font-family="Segoe UI, Helvetica, Arial, sans-serif" font-size="10.5" font-weight="400" fill="#334155">Room-night displa…</text><rect x="186.2" y="124.3" width="33.3" height="14" rx="4" fill="#94A3B8"/><rect x="186.2" y="124.3" width="33.3" height="14" rx="4" fill="#000" opacity="0.17"/><text x="25" y="163.3" font-family="Segoe UI, Helvetica, Arial, sans-serif" font-size="10.5" font-weight="400" fill="#334155">Closure strategy …</text><rect x="214.0" y="152.8" width="33.3" height="14" rx="4" fill="#64748B"/><rect x="214.0" y="152.8" width="33.3" height="14" rx="4" fill="#000" opacity="0.17"/><text x="14" y="191.8" font-family="Segoe UI, Helvetica, Arial, sans-serif" font-size="10.5" font-weight="400" fill="#334155">Capital approved</text><rect x="241.3" y="182.3" width="12" height="12" rx="2.5" transform="rotate(45 247.3 188.3)" fill="#b45309"/><text x="14" y="220.3" font-family="Segoe UI, Helvetica, Arial, sans-serif" font-size="10.5" font-weight="700" fill="#0f172a">Design &amp; procurement</text><rect x="247.3" y="212.8" width="216.7" height="8" rx="2" fill="#475569"/><text x="25" y="248.8" font-family="Segoe UI, Helvetica, Arial, sans-serif" font-size="10.5" font-weight="400" fill="#334155">Concept design &amp; …</text><rect x="247.3" y="238.3" width="50.0" height="14" rx="4" fill="#2563EB"/><rect x="247.3" y="238.3" width="50.0" height="14" rx="4" fill="#000" opacity="0.17"/><text x="25" y="277.3" font-family="Segoe UI, Helvetica, Arial, sans-serif" font-size="10.5" font-weight="400" fill="#334155">Detailed design &amp;…</text><rect x="291.8" y="266.8" width="61.1" height="14" rx="4" fill="#3B82F6"/><rect x="291.8" y="266.8" width="55.0" height="14" rx="4" fill="#000" opacity="0.17"/>
</svg>