<svg xmlns="http://www.w3.org/2000/svg" viewBox="0 0 480 300" width="480" height="300" role="img" aria-label="Mining Project Schedule Gantt chart template preview">
  <rect width="480" height="300" fill="#ffffff"/>
  <rect x="0" y="46" width="480" height="254" fill="#f8fafc"/>
  <rect x="0" y="46" width="156" height="254" fill="#ffffff"/>
  <line x1="224.0" y1="46" x2="224.0" y2="292" stroke="#eef1f6" stroke-width="1"/><line x1="284.0" y1="46" x2="284.0" y2="292" stroke="#eef1f6" stroke-width="1"/><line x1="344.0" y1="46" x2="344.0" y2="292" stroke="#eef1f6" stroke-width="1"/><line x1="404.0" y1="46" x2="404.0" y2="292" stroke="#eef1f6" stroke-width="1"/>
  <line x1="156" y1="46" x2="156" y2="300" stroke="#e2e8f0" stroke-width="1"/>
  <rect width="480" height="46" fill="#78350f"/>
  <text x="16" y="29" font-family="Segoe UI, Helvetica, Arial, sans-serif" font-size="16" font-weight="700" fill="#ffffff">Mining Project Schedule</text>
  <text x="464" y="28" text-anchor="end" font-family="Segoe UI, Helvetica, Arial, sans-serif" font-size="10.5" fill="#ffffffcc">gantts.app</text>
  <text x="14" y="77.8" font-family="Segoe UI, Helvetica, Arial, sans-serif" font-size="10.5" font-weight="700" fill="#0f172a">Exploration</text><rect x="164.0" y="70.3" width="143.7" height="8" rx="2" fill="#475569"/><text x="25" y="106.3" font-family="Segoe UI, Helvetica, Arial, sans-serif" font-size="10.5" font-weight="400" fill="#334155">Target generation…</text><rect x="164.0" y="95.8" width="53.9" height="14" rx="4" fill="#64748B"/><rect x="164.0" y="95.8" width="53.9" height="14" rx="4" fill="#000" opacity="0.17"/><text x="25" y="134.8" font-family="Segoe UI, Helvetica, Arial, sans-serif" font-size="10.5" font-weight="400" fill="#334155">First-pass drilli…</text><rect x="217.9" y="124.3" width="89.8" height="14" rx="4" fill="#94A3B8"/><rect x="217.9" y="124.3" width="89.8" height="14" rx="4" fill="#000" opacity="0.17"/><text x="14" y="163.3" font-family="Segoe UI, Helvetica, Arial, sans-serif" font-size="10.5" font-weight="400" fill="#334155">Discovery confirmed</text><rect x="301.7" y="153.8" width="12" height="12" rx="2.5" transform="rotate(45 307.7 159.8)" fill="#78350f"/><text x="14" y="191.8" font-family="Segoe UI, Helvetica, Arial, sans-serif" font-size="10.5" font-weight="700" fill="#0f172a">Resource definition</text><rect x="307.7" y="184.3" width="155.7" height="8" rx="2" fill="#475569"/><text x="25" y="220.3" font-family="Segoe UI, Helvetica, Arial, sans-serif" font-size="10.5" font-weight="400" fill="#334155">Infill drilling</text><rect x="307.7" y="209.8" width="107.8" height="14" rx="4" fill="#78350F"/><rect x="307.7" y="209.8" width="97.0" height="14" rx="4" fill="#000" opacity="0.17"/><text x="25" y="248.8" font-family="Segoe UI, Helvetica, Arial, sans-serif" font-size="10.5" font-weight="400" fill="#334155">Assay turnaround …</text><rect x="361.6" y="238.3" width="101.8" height="14" rx="4" fill="#A16207"/><rect x="361.6" y="238.3" width="61.1" height="14" rx="4" fill="#000" opacity="0.17"/><text x="14" y="277.3" font-family="Segoe UI, Helvetica, Arial, sans-serif" font-size="10.5" font-weight="400" fill="#334155">Resource declared</text><rect x="457.4" y="267.8" width="12" height="12" rx="2.5" transform="rotate(45 463.4 273.8)" fill="#78350f"/>
</svg>