<svg xmlns="http://www.w3.org/2000/svg" viewBox="0 0 480 300" width="480" height="300" role="img" aria-label="Mobile App Launch Plan Gantt chart template preview">
  <rect width="480" height="300" fill="#ffffff"/>
  <rect x="0" y="46" width="480" height="254" fill="#f8fafc"/>
  <rect x="0" y="46" width="156" height="254" fill="#ffffff"/>
  <line x1="224.0" y1="46" x2="224.0" y2="292" stroke="#eef1f6" stroke-width="1"/><line x1="284.0" y1="46" x2="284.0" y2="292" stroke="#eef1f6" stroke-width="1"/><line x1="344.0" y1="46" x2="344.0" y2="292" stroke="#eef1f6" stroke-width="1"/><line x1="404.0" y1="46" x2="404.0" y2="292" stroke="#eef1f6" stroke-width="1"/>
  <line x1="156" y1="46" x2="156" y2="300" stroke="#e2e8f0" stroke-width="1"/>
  <rect width="480" height="46" fill="#6d28d9"/>
  <text x="16" y="29" font-family="Segoe UI, Helvetica, Arial, sans-serif" font-size="16" font-weight="700" fill="#ffffff">Mobile App Launch Plan</text>
  <text x="464" y="28" text-anchor="end" font-family="Segoe UI, Helvetica, Arial, sans-serif" font-size="10.5" fill="#ffffffcc">gantts.app</text>
  <text x="14" y="77.8" font-family="Segoe UI, Helvetica, Arial, sans-serif" font-size="10.5" font-weight="700" fill="#0f172a">Build hardening</text><rect x="164.0" y="70.3" width="168.8" height="8" rx="2" fill="#475569"/><text x="14" y="106.3" font-family="Segoe UI, Helvetica, Arial, sans-serif" font-size="10.5" font-weight="400" fill="#334155">Feature freeze</text><rect x="158.0" y="96.8" width="12" height="12" rx="2.5" transform="rotate(45 164.0 102.8)" fill="#6d28d9"/><text x="25" y="134.8" font-family="Segoe UI, Helvetica, Arial, sans-serif" font-size="10.5" font-weight="400" fill="#334155">Crash &amp; ANR triage</text><rect x="164.0" y="124.3" width="93.8" height="14" rx="4" fill="#64748B"/><rect x="164.0" y="124.3" width="93.8" height="14" rx="4" fill="#000" opacity="0.17"/><text x="25" y="163.3" font-family="Segoe UI, Helvetica, Arial, sans-serif" font-size="10.5" font-weight="400" fill="#334155">Performance &amp; mem…</text><rect x="220.3" y="152.8" width="75.0" height="14" rx="4" fill="#94A3B8"/><rect x="220.3" y="152.8" width="75.0" height="14" rx="4" fill="#000" opacity="0.17"/><text x="25" y="191.8" font-family="Segoe UI, Helvetica, Arial, sans-serif" font-size="10.5" font-weight="400" fill="#334155">Accessibility &amp; d…</text><rect x="239.0" y="181.3" width="93.8" height="14" rx="4" fill="#64748B"/><rect x="239.0" y="181.3" width="93.8" height="14" rx="4" fill="#000" opacity="0.17"/><text x="25" y="220.3" font-family="Segoe UI, Helvetica, Arial, sans-serif" font-size="10.5" font-weight="400" fill="#334155">Release candidate…</text><rect x="314.0" y="209.8" width="18.8" height="14" rx="4" fill="#94A3B8"/><rect x="314.0" y="209.8" width="18.8" height="14" rx="4" fill="#000" opacity="0.17"/><text x="14" y="248.8" font-family="Segoe UI, Helvetica, Arial, sans-serif" font-size="10.5" font-weight="400" fill="#334155">Release candidate r…</text><rect x="326.8" y="239.3" width="12" height="12" rx="2.5" transform="rotate(45 332.8 245.3)" fill="#6d28d9"/><text x="14" y="277.3" font-family="Segoe UI, Helvetica, Arial, sans-serif" font-size="10.5" font-weight="700" fill="#0f172a">Store listing &amp; ass…</text><rect x="276.5" y="269.8" width="187.5" height="8" rx="2" fill="#475569"/>
</svg>