<svg xmlns="http://www.w3.org/2000/svg" viewBox="0 0 480 300" width="480" height="300" role="img" aria-label="Monthly Plan Gantt chart template preview">
  <rect width="480" height="300" fill="#ffffff"/>
  <rect x="0" y="46" width="480" height="254" fill="#f8fafc"/>
  <rect x="0" y="46" width="156" height="254" fill="#ffffff"/>
  <line x1="224.0" y1="46" x2="224.0" y2="292" stroke="#eef1f6" stroke-width="1"/><line x1="284.0" y1="46" x2="284.0" y2="292" stroke="#eef1f6" stroke-width="1"/><line x1="344.0" y1="46" x2="344.0" y2="292" stroke="#eef1f6" stroke-width="1"/><line x1="404.0" y1="46" x2="404.0" y2="292" stroke="#eef1f6" stroke-width="1"/>
  <line x1="156" y1="46" x2="156" y2="300" stroke="#e2e8f0" stroke-width="1"/>
  <rect width="480" height="46" fill="#8b5cf6"/>
  <text x="16" y="29" font-family="Segoe UI, Helvetica, Arial, sans-serif" font-size="16" font-weight="700" fill="#ffffff">Monthly Plan</text>
  <text x="464" y="28" text-anchor="end" font-family="Segoe UI, Helvetica, Arial, sans-serif" font-size="10.5" fill="#ffffffcc">gantts.app</text>
  <text x="14" y="77.8" font-family="Segoe UI, Helvetica, Arial, sans-serif" font-size="10.5" font-weight="700" fill="#0f172a">Week 1 — Plan</text><rect x="164.0" y="70.3" width="57.7" height="8" rx="2" fill="#475569"/><text x="25" y="106.3" font-family="Segoe UI, Helvetica, Arial, sans-serif" font-size="10.5" font-weight="400" fill="#334155">Scope &amp; goals</text><rect x="164.0" y="95.8" width="34.6" height="14" rx="4" fill="#8B5CF6"/><rect x="164.0" y="95.8" width="34.6" height="14" rx="4" fill="#000" opacity="0.17"/><text x="14" y="134.8" font-family="Segoe UI, Helvetica, Arial, sans-serif" font-size="10.5" font-weight="700" fill="#0f172a">Week 2 — Build</text><rect x="244.8" y="127.3" width="57.7" height="8" rx="2" fill="#475569"/><text x="25" y="163.3" font-family="Segoe UI, Helvetica, Arial, sans-serif" font-size="10.5" font-weight="400" fill="#334155">Core work</text><rect x="244.8" y="152.8" width="57.7" height="14" rx="4" fill="#0EA5E9"/><rect x="244.8" y="152.8" width="23.1" height="14" rx="4" fill="#000" opacity="0.17"/><text x="14" y="191.8" font-family="Segoe UI, Helvetica, Arial, sans-serif" font-size="10.5" font-weight="700" fill="#0f172a">Week 3 — Build &amp; te…</text><rect x="325.5" y="184.3" width="57.7" height="8" rx="2" fill="#475569"/><text x="25" y="220.3" font-family="Segoe UI, Helvetica, Arial, sans-serif" font-size="10.5" font-weight="400" fill="#334155">Finish &amp; QA</text><rect x="325.5" y="209.8" width="57.7" height="14" rx="4" fill="#2563EB"/><text x="14" y="248.8" font-family="Segoe UI, Helvetica, Arial, sans-serif" font-size="10.5" font-weight="700" fill="#0f172a">Week 4 — Launch</text><rect x="406.3" y="241.3" width="57.7" height="8" rx="2" fill="#475569"/><text x="25" y="277.3" font-family="Segoe UI, Helvetica, Arial, sans-serif" font-size="10.5" font-weight="400" fill="#334155">Review &amp; ship</text><rect x="406.3" y="266.8" width="34.6" height="14" rx="4" fill="#10B981"/>
</svg>