<svg xmlns="http://www.w3.org/2000/svg" viewBox="0 0 480 300" width="480" height="300" role="img" aria-label="Museum Exhibition Planning Gantt chart template preview">
  <rect width="480" height="300" fill="#ffffff"/>
  <rect x="0" y="46" width="480" height="254" fill="#f8fafc"/>
  <rect x="0" y="46" width="156" height="254" fill="#ffffff"/>
  <line x1="224.0" y1="46" x2="224.0" y2="292" stroke="#eef1f6" stroke-width="1"/><line x1="284.0" y1="46" x2="284.0" y2="292" stroke="#eef1f6" stroke-width="1"/><line x1="344.0" y1="46" x2="344.0" y2="292" stroke="#eef1f6" stroke-width="1"/><line x1="404.0" y1="46" x2="404.0" y2="292" stroke="#eef1f6" stroke-width="1"/>
  <line x1="156" y1="46" x2="156" y2="300" stroke="#e2e8f0" stroke-width="1"/>
  <rect width="480" height="46" fill="#9333ea"/>
  <text x="16" y="29" font-family="Segoe UI, Helvetica, Arial, sans-serif" font-size="16" font-weight="700" fill="#ffffff">Museum Exhibition Planning</text>
  <text x="464" y="28" text-anchor="end" font-family="Segoe UI, Helvetica, Arial, sans-serif" font-size="10.5" fill="#ffffffcc">gantts.app</text>
  <text x="14" y="77.8" font-family="Segoe UI, Helvetica, Arial, sans-serif" font-size="10.5" font-weight="700" fill="#0f172a">Concept &amp; curatoria…</text><rect x="164.0" y="70.3" width="230.0" height="8" rx="2" fill="#475569"/><text x="25" y="106.3" font-family="Segoe UI, Helvetica, Arial, sans-serif" font-size="10.5" font-weight="400" fill="#334155">Exhibition concep…</text><rect x="164.0" y="95.8" width="40.0" height="14" rx="4" fill="#64748B"/><rect x="164.0" y="95.8" width="40.0" height="14" rx="4" fill="#000" opacity="0.17"/><text x="25" y="134.8" font-family="Segoe UI, Helvetica, Arial, sans-serif" font-size="10.5" font-weight="400" fill="#334155">Object wish list …</text><rect x="194.0" y="124.3" width="45.0" height="14" rx="4" fill="#94A3B8"/><rect x="194.0" y="124.3" width="45.0" height="14" rx="4" fill="#000" opacity="0.17"/><text x="25" y="163.3" font-family="Segoe UI, Helvetica, Arial, sans-serif" font-size="10.5" font-weight="400" fill="#334155">Budget &amp; funding …</text><rect x="224.0" y="152.8" width="45.0" height="14" rx="4" fill="#64748B"/><rect x="224.0" y="152.8" width="45.0" height="14" rx="4" fill="#000" opacity="0.17"/><text x="14" y="191.8" font-family="Segoe UI, Helvetica, Arial, sans-serif" font-size="10.5" font-weight="400" fill="#334155">Opening date fixed …</text><rect x="263.0" y="182.3" width="12" height="12" rx="2.5" transform="rotate(45 269.0 188.3)" fill="#9333ea"/><text x="25" y="220.3" font-family="Segoe UI, Helvetica, Arial, sans-serif" font-size="10.5" font-weight="400" fill="#334155">Government indemn…</text><rect x="269.0" y="209.8" width="60.0" height="14" rx="4" fill="#94A3B8"/><rect x="269.0" y="209.8" width="54.0" height="14" rx="4" fill="#000" opacity="0.17"/><text x="25" y="248.8" font-family="Segoe UI, Helvetica, Arial, sans-serif" font-size="10.5" font-weight="400" fill="#334155">Catalogue commiss…</text><rect x="274.0" y="238.3" width="120.0" height="14" rx="4" fill="#64748B"/><rect x="274.0" y="238.3" width="72.0" height="14" rx="4" fill="#000" opacity="0.17"/><text x="14" y="277.3" font-family="Segoe UI, Helvetica, Arial, sans-serif" font-size="10.5" font-weight="700" fill="#0f172a">Loans &amp; lender agre…</text><rect x="269.0" y="269.8" width="195.0" height="8" rx="2" fill="#475569"/>
</svg>