<svg xmlns="http://www.w3.org/2000/svg" viewBox="0 0 480 300" width="480" height="300" role="img" aria-label="Nuclear Decommissioning Gantt chart template preview">
  <rect width="480" height="300" fill="#ffffff"/>
  <rect x="0" y="46" width="480" height="254" fill="#f8fafc"/>
  <rect x="0" y="46" width="156" height="254" fill="#ffffff"/>
  <line x1="224.0" y1="46" x2="224.0" y2="292" stroke="#eef1f6" stroke-width="1"/><line x1="284.0" y1="46" x2="284.0" y2="292" stroke="#eef1f6" stroke-width="1"/><line x1="344.0" y1="46" x2="344.0" y2="292" stroke="#eef1f6" stroke-width="1"/><line x1="404.0" y1="46" x2="404.0" y2="292" stroke="#eef1f6" stroke-width="1"/>
  <line x1="156" y1="46" x2="156" y2="300" stroke="#e2e8f0" stroke-width="1"/>
  <rect width="480" height="46" fill="#dc2626"/>
  <text x="16" y="29" font-family="Segoe UI, Helvetica, Arial, sans-serif" font-size="16" font-weight="700" fill="#ffffff">Nuclear Decommissioning</text>
  <text x="464" y="28" text-anchor="end" font-family="Segoe UI, Helvetica, Arial, sans-serif" font-size="10.5" fill="#ffffffcc">gantts.app</text>
  <text x="14" y="77.8" font-family="Segoe UI, Helvetica, Arial, sans-serif" font-size="10.5" font-weight="700" fill="#0f172a">Post-operational cl…</text><rect x="164.0" y="70.3" width="298.7" height="8" rx="2" fill="#475569"/><text x="25" y="106.3" font-family="Segoe UI, Helvetica, Arial, sans-serif" font-size="10.5" font-weight="400" fill="#334155">Defuelling &amp; fuel…</text><rect x="164.0" y="95.8" width="155.8" height="14" rx="4" fill="#64748B"/><rect x="164.0" y="95.8" width="155.8" height="14" rx="4" fill="#000" opacity="0.17"/><text x="25" y="134.8" font-family="Segoe UI, Helvetica, Arial, sans-serif" font-size="10.5" font-weight="400" fill="#334155">Radiological char…</text><rect x="241.9" y="124.3" width="142.9" height="14" rx="4" fill="#94A3B8"/><rect x="241.9" y="124.3" width="114.3" height="14" rx="4" fill="#000" opacity="0.17"/><text x="25" y="163.3" font-family="Segoe UI, Helvetica, Arial, sans-serif" font-size="10.5" font-weight="400" fill="#334155">Legacy waste inve…</text><rect x="293.9" y="152.8" width="116.9" height="14" rx="4" fill="#64748B"/><rect x="293.9" y="152.8" width="81.8" height="14" rx="4" fill="#000" opacity="0.17"/><text x="25" y="191.8" font-family="Segoe UI, Helvetica, Arial, sans-serif" font-size="10.5" font-weight="400" fill="#334155">Asbestos &amp; hazard…</text><rect x="306.9" y="181.3" width="77.9" height="14" rx="4" fill="#94A3B8"/><rect x="306.9" y="181.3" width="46.8" height="14" rx="4" fill="#000" opacity="0.17"/><text x="25" y="220.3" font-family="Segoe UI, Helvetica, Arial, sans-serif" font-size="10.5" font-weight="400" fill="#334155">Decommissioning s…</text><rect x="358.8" y="209.8" width="103.9" height="14" rx="4" fill="#64748B"/><rect x="358.8" y="209.8" width="41.6" height="14" rx="4" fill="#000" opacity="0.17"/><text x="14" y="248.8" font-family="Segoe UI, Helvetica, Arial, sans-serif" font-size="10.5" font-weight="400" fill="#334155">Fuel-free status de…</text><rect x="313.8" y="239.3" width="12" height="12" rx="2.5" transform="rotate(45 319.8 245.3)" fill="#dc2626"/><text x="14" y="277.3" font-family="Segoe UI, Helvetica, Arial, sans-serif" font-size="10.5" font-weight="400" fill="#334155">Characterisation ba…</text><rect x="456.7" y="267.8" width="12" height="12" rx="2.5" transform="rotate(45 462.7 273.8)" fill="#dc2626"/>
</svg>