<svg xmlns="http://www.w3.org/2000/svg" viewBox="0 0 480 300" width="480" height="300" role="img" aria-label="Pharma Product Launch Plan Gantt chart template preview">
  <rect width="480" height="300" fill="#ffffff"/>
  <rect x="0" y="46" width="480" height="254" fill="#f8fafc"/>
  <rect x="0" y="46" width="156" height="254" fill="#ffffff"/>
  <line x1="224.0" y1="46" x2="224.0" y2="292" stroke="#eef1f6" stroke-width="1"/><line x1="284.0" y1="46" x2="284.0" y2="292" stroke="#eef1f6" stroke-width="1"/><line x1="344.0" y1="46" x2="344.0" y2="292" stroke="#eef1f6" stroke-width="1"/><line x1="404.0" y1="46" x2="404.0" y2="292" stroke="#eef1f6" stroke-width="1"/>
  <line x1="156" y1="46" x2="156" y2="300" stroke="#e2e8f0" stroke-width="1"/>
  <rect width="480" height="46" fill="#be185d"/>
  <text x="16" y="29" font-family="Segoe UI, Helvetica, Arial, sans-serif" font-size="16" font-weight="700" fill="#ffffff">Pharma Product Launch Plan</text>
  <text x="464" y="28" text-anchor="end" font-family="Segoe UI, Helvetica, Arial, sans-serif" font-size="10.5" fill="#ffffffcc">gantts.app</text>
  <text x="14" y="77.8" font-family="Segoe UI, Helvetica, Arial, sans-serif" font-size="10.5" font-weight="700" fill="#0f172a">Regulatory submissi…</text><rect x="164.0" y="70.3" width="299.3" height="8" rx="2" fill="#475569"/><text x="25" y="106.3" font-family="Segoe UI, Helvetica, Arial, sans-serif" font-size="10.5" font-weight="400" fill="#334155">Dossier compilati…</text><rect x="164.0" y="95.8" width="67.3" height="14" rx="4" fill="#2563EB"/><rect x="164.0" y="95.8" width="67.3" height="14" rx="4" fill="#000" opacity="0.17"/><text x="25" y="134.8" font-family="Segoe UI, Helvetica, Arial, sans-serif" font-size="10.5" font-weight="400" fill="#334155">Pre-submission me…</text><rect x="208.9" y="124.3" width="15.0" height="14" rx="4" fill="#3B82F6"/><rect x="208.9" y="124.3" width="15.0" height="14" rx="4" fill="#000" opacity="0.17"/><text x="14" y="163.3" font-family="Segoe UI, Helvetica, Arial, sans-serif" font-size="10.5" font-weight="400" fill="#334155">Submission to first…</text><rect x="229.1" y="153.8" width="12" height="12" rx="2.5" transform="rotate(45 235.1 159.8)" fill="#be185d"/><text x="25" y="191.8" font-family="Segoe UI, Helvetica, Arial, sans-serif" font-size="10.5" font-weight="400" fill="#334155">Regulatory review…</text><rect x="235.1" y="181.3" width="179.6" height="14" rx="4" fill="#2563EB"/><rect x="235.1" y="181.3" width="107.7" height="14" rx="4" fill="#000" opacity="0.17"/><text x="25" y="220.3" font-family="Segoe UI, Helvetica, Arial, sans-serif" font-size="10.5" font-weight="400" fill="#334155">Questions &amp; respo…</text><rect x="313.6" y="209.8" width="67.3" height="14" rx="4" fill="#3B82F6"/><rect x="313.6" y="209.8" width="26.9" height="14" rx="4" fill="#000" opacity="0.17"/><text x="25" y="248.8" font-family="Segoe UI, Helvetica, Arial, sans-serif" font-size="10.5" font-weight="400" fill="#334155">Labelling negotia…</text><rect x="403.4" y="238.3" width="44.9" height="14" rx="4" fill="#2563EB"/><text x="14" y="277.3" font-family="Segoe UI, Helvetica, Arial, sans-serif" font-size="10.5" font-weight="400" fill="#334155">Marketing authorisa…</text><rect x="457.3" y="267.8" width="12" height="12" rx="2.5" transform="rotate(45 463.3 273.8)" fill="#be185d"/>
</svg>