<svg xmlns="http://www.w3.org/2000/svg" viewBox="0 0 480 300" width="480" height="300" role="img" aria-label="Restaurant Opening Timeline Gantt chart template preview">
  <rect width="480" height="300" fill="#ffffff"/>
  <rect x="0" y="46" width="480" height="254" fill="#f8fafc"/>
  <rect x="0" y="46" width="156" height="254" fill="#ffffff"/>
  <line x1="224.0" y1="46" x2="224.0" y2="292" stroke="#eef1f6" stroke-width="1"/><line x1="284.0" y1="46" x2="284.0" y2="292" stroke="#eef1f6" stroke-width="1"/><line x1="344.0" y1="46" x2="344.0" y2="292" stroke="#eef1f6" stroke-width="1"/><line x1="404.0" y1="46" x2="404.0" y2="292" stroke="#eef1f6" stroke-width="1"/>
  <line x1="156" y1="46" x2="156" y2="300" stroke="#e2e8f0" stroke-width="1"/>
  <rect width="480" height="46" fill="#dc2626"/>
  <text x="16" y="29" font-family="Segoe UI, Helvetica, Arial, sans-serif" font-size="16" font-weight="700" fill="#ffffff">Restaurant Opening Timeline</text>
  <text x="464" y="28" text-anchor="end" font-family="Segoe UI, Helvetica, Arial, sans-serif" font-size="10.5" fill="#ffffffcc">gantts.app</text>
  <text x="14" y="77.8" font-family="Segoe UI, Helvetica, Arial, sans-serif" font-size="10.5" font-weight="700" fill="#0f172a">Concept &amp; lease</text><rect x="164.0" y="70.3" width="131.3" height="8" rx="2" fill="#475569"/><text x="25" y="106.3" font-family="Segoe UI, Helvetica, Arial, sans-serif" font-size="10.5" font-weight="400" fill="#334155">Concept &amp; menu di…</text><rect x="164.0" y="95.8" width="56.3" height="14" rx="4" fill="#64748B"/><rect x="164.0" y="95.8" width="56.3" height="14" rx="4" fill="#000" opacity="0.17"/><text x="25" y="134.8" font-family="Segoe UI, Helvetica, Arial, sans-serif" font-size="10.5" font-weight="400" fill="#334155">Site search &amp; fin…</text><rect x="182.8" y="124.3" width="75.0" height="14" rx="4" fill="#94A3B8"/><rect x="182.8" y="124.3" width="75.0" height="14" rx="4" fill="#000" opacity="0.17"/><text x="25" y="163.3" font-family="Segoe UI, Helvetica, Arial, sans-serif" font-size="10.5" font-weight="400" fill="#334155">Lease negotiation</text><rect x="248.4" y="152.8" width="46.9" height="14" rx="4" fill="#64748B"/><rect x="248.4" y="152.8" width="46.9" height="14" rx="4" fill="#000" opacity="0.17"/><text x="14" y="191.8" font-family="Segoe UI, Helvetica, Arial, sans-serif" font-size="10.5" font-weight="400" fill="#334155">Lease signed</text><rect x="289.3" y="182.3" width="12" height="12" rx="2.5" transform="rotate(45 295.3 188.3)" fill="#dc2626"/><text x="14" y="220.3" font-family="Segoe UI, Helvetica, Arial, sans-serif" font-size="10.5" font-weight="700" fill="#0f172a">Design &amp; permits</text><rect x="295.3" y="212.8" width="168.8" height="8" rx="2" fill="#475569"/><text x="25" y="248.8" font-family="Segoe UI, Helvetica, Arial, sans-serif" font-size="10.5" font-weight="400" fill="#334155">Space &amp; kitchen d…</text><rect x="295.3" y="238.3" width="65.6" height="14" rx="4" fill="#2563EB"/><rect x="295.3" y="238.3" width="65.6" height="14" rx="4" fill="#000" opacity="0.17"/><text x="25" y="277.3" font-family="Segoe UI, Helvetica, Arial, sans-serif" font-size="10.5" font-weight="400" fill="#334155">Architectural dra…</text><rect x="342.1" y="266.8" width="56.3" height="14" rx="4" fill="#3B82F6"/><rect x="342.1" y="266.8" width="50.6" height="14" rx="4" fill="#000" opacity="0.17"/>
</svg>