<svg xmlns="http://www.w3.org/2000/svg" viewBox="0 0 480 300" width="480" height="300" role="img" aria-label="SAP S/4HANA Migration Plan Gantt chart template preview">
  <rect width="480" height="300" fill="#ffffff"/>
  <rect x="0" y="46" width="480" height="254" fill="#f8fafc"/>
  <rect x="0" y="46" width="156" height="254" fill="#ffffff"/>
  <line x1="224.0" y1="46" x2="224.0" y2="292" stroke="#eef1f6" stroke-width="1"/><line x1="284.0" y1="46" x2="284.0" y2="292" stroke="#eef1f6" stroke-width="1"/><line x1="344.0" y1="46" x2="344.0" y2="292" stroke="#eef1f6" stroke-width="1"/><line x1="404.0" y1="46" x2="404.0" y2="292" stroke="#eef1f6" stroke-width="1"/>
  <line x1="156" y1="46" x2="156" y2="300" stroke="#e2e8f0" stroke-width="1"/>
  <rect width="480" height="46" fill="#0f766e"/>
  <text x="16" y="29" font-family="Segoe UI, Helvetica, Arial, sans-serif" font-size="16" font-weight="700" fill="#ffffff">SAP S/4HANA Migration Plan</text>
  <text x="464" y="28" text-anchor="end" font-family="Segoe UI, Helvetica, Arial, sans-serif" font-size="10.5" fill="#ffffffcc">gantts.app</text>
  <text x="14" y="77.8" font-family="Segoe UI, Helvetica, Arial, sans-serif" font-size="10.5" font-weight="700" fill="#0f172a">Path decision &amp; rea…</text><rect x="164.0" y="70.3" width="95.5" height="8" rx="2" fill="#475569"/><text x="25" y="106.3" font-family="Segoe UI, Helvetica, Arial, sans-serif" font-size="10.5" font-weight="400" fill="#334155">Run readiness che…</text><rect x="164.0" y="95.8" width="27.3" height="14" rx="4" fill="#64748B"/><rect x="164.0" y="95.8" width="27.3" height="14" rx="4" fill="#000" opacity="0.17"/><text x="25" y="134.8" font-family="Segoe UI, Helvetica, Arial, sans-serif" font-size="10.5" font-weight="400" fill="#334155">Business case &amp; s…</text><rect x="177.6" y="124.3" width="34.1" height="14" rx="4" fill="#94A3B8"/><rect x="177.6" y="124.3" width="34.1" height="14" rx="4" fill="#000" opacity="0.17"/><text x="25" y="163.3" font-family="Segoe UI, Helvetica, Arial, sans-serif" font-size="10.5" font-weight="400" fill="#334155">Brownfield vs gre…</text><rect x="204.9" y="152.8" width="20.5" height="14" rx="4" fill="#64748B"/><rect x="204.9" y="152.8" width="20.5" height="14" rx="4" fill="#000" opacity="0.17"/><text x="25" y="191.8" font-family="Segoe UI, Helvetica, Arial, sans-serif" font-size="10.5" font-weight="400" fill="#334155">Sizing &amp; target l…</text><rect x="218.5" y="181.3" width="27.3" height="14" rx="4" fill="#94A3B8"/><rect x="218.5" y="181.3" width="27.3" height="14" rx="4" fill="#000" opacity="0.17"/><text x="14" y="220.3" font-family="Segoe UI, Helvetica, Arial, sans-serif" font-size="10.5" font-weight="400" fill="#334155">Conversion path sig…</text><rect x="253.5" y="210.8" width="12" height="12" rx="2.5" transform="rotate(45 259.5 216.8)" fill="#0f766e"/><text x="14" y="248.8" font-family="Segoe UI, Helvetica, Arial, sans-serif" font-size="10.5" font-weight="700" fill="#0f172a">Preparation &amp; custo…</text><rect x="259.5" y="241.3" width="204.5" height="8" rx="2" fill="#475569"/><text x="25" y="277.3" font-family="Segoe UI, Helvetica, Arial, sans-serif" font-size="10.5" font-weight="400" fill="#334155">Custom code analy…</text><rect x="259.5" y="266.8" width="40.9" height="14" rx="4" fill="#0F766E"/><rect x="259.5" y="266.8" width="40.9" height="14" rx="4" fill="#000" opacity="0.17"/>
</svg>