<svg xmlns="http://www.w3.org/2000/svg" viewBox="0 0 480 300" width="480" height="300" role="img" aria-label="School Year Planning Calendar Gantt chart template preview">
  <rect width="480" height="300" fill="#ffffff"/>
  <rect x="0" y="46" width="480" height="254" fill="#f8fafc"/>
  <rect x="0" y="46" width="156" height="254" fill="#ffffff"/>
  <line x1="224.0" y1="46" x2="224.0" y2="292" stroke="#eef1f6" stroke-width="1"/><line x1="284.0" y1="46" x2="284.0" y2="292" stroke="#eef1f6" stroke-width="1"/><line x1="344.0" y1="46" x2="344.0" y2="292" stroke="#eef1f6" stroke-width="1"/><line x1="404.0" y1="46" x2="404.0" y2="292" stroke="#eef1f6" stroke-width="1"/>
  <line x1="156" y1="46" x2="156" y2="300" stroke="#e2e8f0" stroke-width="1"/>
  <rect width="480" height="46" fill="#7c3aed"/>
  <text x="16" y="29" font-family="Segoe UI, Helvetica, Arial, sans-serif" font-size="16" font-weight="700" fill="#ffffff">School Year Planning Calendar</text>
  <text x="464" y="28" text-anchor="end" font-family="Segoe UI, Helvetica, Arial, sans-serif" font-size="10.5" fill="#ffffffcc">gantts.app</text>
  <text x="14" y="77.8" font-family="Segoe UI, Helvetica, Arial, sans-serif" font-size="10.5" font-weight="700" fill="#0f172a">Curriculum &amp; timeta…</text><rect x="164.0" y="70.3" width="257.1" height="8" rx="2" fill="#475569"/><text x="25" y="106.3" font-family="Segoe UI, Helvetica, Arial, sans-serif" font-size="10.5" font-weight="400" fill="#334155">Curriculum model …</text><rect x="164.0" y="95.8" width="68.6" height="14" rx="4" fill="#7C3AED"/><rect x="164.0" y="95.8" width="68.6" height="14" rx="4" fill="#000" opacity="0.17"/><text x="25" y="134.8" font-family="Segoe UI, Helvetica, Arial, sans-serif" font-size="10.5" font-weight="400" fill="#334155">Option choices &amp; …</text><rect x="224.0" y="124.3" width="60.0" height="14" rx="4" fill="#A78BFA"/><rect x="224.0" y="124.3" width="60.0" height="14" rx="4" fill="#000" opacity="0.17"/><text x="25" y="163.3" font-family="Segoe UI, Helvetica, Arial, sans-serif" font-size="10.5" font-weight="400" fill="#334155">Subject &amp; staff a…</text><rect x="284.0" y="152.8" width="68.6" height="14" rx="4" fill="#7C3AED"/><rect x="284.0" y="152.8" width="68.6" height="14" rx="4" fill="#000" opacity="0.17"/><text x="25" y="191.8" font-family="Segoe UI, Helvetica, Arial, sans-serif" font-size="10.5" font-weight="400" fill="#334155">Timetable build &amp;…</text><rect x="344.0" y="181.3" width="68.6" height="14" rx="4" fill="#A78BFA"/><rect x="344.0" y="181.3" width="61.7" height="14" rx="4" fill="#000" opacity="0.17"/><text x="25" y="220.3" font-family="Segoe UI, Helvetica, Arial, sans-serif" font-size="10.5" font-weight="400" fill="#334155">Rooming &amp; resourc…</text><rect x="386.9" y="209.8" width="34.3" height="14" rx="4" fill="#7C3AED"/><rect x="386.9" y="209.8" width="20.6" height="14" rx="4" fill="#000" opacity="0.17"/><text x="14" y="248.8" font-family="Segoe UI, Helvetica, Arial, sans-serif" font-size="10.5" font-weight="400" fill="#334155">Timetable published</text><rect x="415.1" y="239.3" width="12" height="12" rx="2.5" transform="rotate(45 421.1 245.3)" fill="#7c3aed"/><text x="14" y="277.3" font-family="Segoe UI, Helvetica, Arial, sans-serif" font-size="10.5" font-weight="700" fill="#0f172a">Staffing &amp; contracts</text><rect x="164.0" y="269.8" width="300.0" height="8" rx="2" fill="#475569"/>
</svg>