<svg xmlns="http://www.w3.org/2000/svg" viewBox="0 0 480 300" width="480" height="300" role="img" aria-label="Shipbuilding Project Schedule Gantt chart template preview">
  <rect width="480" height="300" fill="#ffffff"/>
  <rect x="0" y="46" width="480" height="254" fill="#f8fafc"/>
  <rect x="0" y="46" width="156" height="254" fill="#ffffff"/>
  <line x1="224.0" y1="46" x2="224.0" y2="292" stroke="#eef1f6" stroke-width="1"/><line x1="284.0" y1="46" x2="284.0" y2="292" stroke="#eef1f6" stroke-width="1"/><line x1="344.0" y1="46" x2="344.0" y2="292" stroke="#eef1f6" stroke-width="1"/><line x1="404.0" y1="46" x2="404.0" y2="292" stroke="#eef1f6" stroke-width="1"/>
  <line x1="156" y1="46" x2="156" y2="300" stroke="#e2e8f0" stroke-width="1"/>
  <rect width="480" height="46" fill="#1d4ed8"/>
  <text x="16" y="29" font-family="Segoe UI, Helvetica, Arial, sans-serif" font-size="16" font-weight="700" fill="#ffffff">Shipbuilding Project Schedule</text>
  <text x="464" y="28" text-anchor="end" font-family="Segoe UI, Helvetica, Arial, sans-serif" font-size="10.5" fill="#ffffffcc">gantts.app</text>
  <text x="14" y="77.8" font-family="Segoe UI, Helvetica, Arial, sans-serif" font-size="10.5" font-weight="700" fill="#0f172a">Design &amp; approval</text><rect x="164.0" y="70.3" width="121.6" height="8" rx="2" fill="#475569"/><text x="25" y="106.3" font-family="Segoe UI, Helvetica, Arial, sans-serif" font-size="10.5" font-weight="400" fill="#334155">Basic &amp; detail de…</text><rect x="164.0" y="95.8" width="89.2" height="14" rx="4" fill="#64748B"/><rect x="164.0" y="95.8" width="89.2" height="14" rx="4" fill="#000" opacity="0.17"/><text x="25" y="134.8" font-family="Segoe UI, Helvetica, Arial, sans-serif" font-size="10.5" font-weight="400" fill="#334155">Classification re…</text><rect x="237.0" y="124.3" width="48.6" height="14" rx="4" fill="#94A3B8"/><rect x="237.0" y="124.3" width="43.8" height="14" rx="4" fill="#000" opacity="0.17"/><text x="14" y="163.3" font-family="Segoe UI, Helvetica, Arial, sans-serif" font-size="10.5" font-weight="400" fill="#334155">Class approval</text><rect x="279.6" y="153.8" width="12" height="12" rx="2.5" transform="rotate(45 285.6 159.8)" fill="#1d4ed8"/><text x="14" y="191.8" font-family="Segoe UI, Helvetica, Arial, sans-serif" font-size="10.5" font-weight="700" fill="#0f172a">Procurement</text><rect x="212.6" y="184.3" width="210.8" height="8" rx="2" fill="#475569"/><text x="25" y="220.3" font-family="Segoe UI, Helvetica, Arial, sans-serif" font-size="10.5" font-weight="400" fill="#334155">Main engine &amp; pro…</text><rect x="212.6" y="209.8" width="162.2" height="14" rx="4" fill="#A855F7"/><rect x="212.6" y="209.8" width="113.5" height="14" rx="4" fill="#000" opacity="0.17"/><text x="25" y="248.8" font-family="Segoe UI, Helvetica, Arial, sans-serif" font-size="10.5" font-weight="400" fill="#334155">Steel &amp; equipment…</text><rect x="261.3" y="238.3" width="113.5" height="14" rx="4" fill="#C084FC"/><rect x="261.3" y="238.3" width="68.1" height="14" rx="4" fill="#000" opacity="0.17"/><text x="14" y="277.3" font-family="Segoe UI, Helvetica, Arial, sans-serif" font-size="10.5" font-weight="700" fill="#0f172a">Steel work &amp; blocks</text><rect x="285.6" y="269.8" width="178.4" height="8" rx="2" fill="#475569"/>
</svg>