<svg xmlns="http://www.w3.org/2000/svg" viewBox="0 0 480 300" width="480" height="300" role="img" aria-label="Sprint Plan · 2 weeks Gantt chart template preview">
  <rect width="480" height="300" fill="#ffffff"/>
  <rect x="0" y="46" width="480" height="254" fill="#f8fafc"/>
  <rect x="0" y="46" width="156" height="254" fill="#ffffff"/>
  <line x1="224.0" y1="46" x2="224.0" y2="292" stroke="#eef1f6" stroke-width="1"/><line x1="284.0" y1="46" x2="284.0" y2="292" stroke="#eef1f6" stroke-width="1"/><line x1="344.0" y1="46" x2="344.0" y2="292" stroke="#eef1f6" stroke-width="1"/><line x1="404.0" y1="46" x2="404.0" y2="292" stroke="#eef1f6" stroke-width="1"/>
  <line x1="156" y1="46" x2="156" y2="300" stroke="#e2e8f0" stroke-width="1"/>
  <rect width="480" height="46" fill="#0ea5e9"/>
  <text x="16" y="29" font-family="Segoe UI, Helvetica, Arial, sans-serif" font-size="16" font-weight="700" fill="#ffffff">Sprint Plan · 2 weeks</text>
  <text x="464" y="28" text-anchor="end" font-family="Segoe UI, Helvetica, Arial, sans-serif" font-size="10.5" fill="#ffffffcc">gantts.app</text>
  <text x="14" y="77.8" font-family="Segoe UI, Helvetica, Arial, sans-serif" font-size="10.5" font-weight="400" fill="#334155">Sprint planning</text><rect x="164.0" y="67.3" width="25.0" height="14" rx="4" fill="#64748B"/><rect x="164.0" y="67.3" width="25.0" height="14" rx="4" fill="#000" opacity="0.17"/><text x="14" y="106.3" font-family="Segoe UI, Helvetica, Arial, sans-serif" font-size="10.5" font-weight="700" fill="#0f172a">Development</text><rect x="189.0" y="98.8" width="200.0" height="8" rx="2" fill="#475569"/><text x="25" y="134.8" font-family="Segoe UI, Helvetica, Arial, sans-serif" font-size="10.5" font-weight="400" fill="#334155">Story: build feat…</text><rect x="189.0" y="124.3" width="125.0" height="14" rx="4" fill="#0EA5E9"/><rect x="189.0" y="124.3" width="75.0" height="14" rx="4" fill="#000" opacity="0.17"/><text x="25" y="163.3" font-family="Segoe UI, Helvetica, Arial, sans-serif" font-size="10.5" font-weight="400" fill="#334155">Story: API work</text><rect x="189.0" y="152.8" width="150.0" height="14" rx="4" fill="#2563EB"/><rect x="189.0" y="152.8" width="60.0" height="14" rx="4" fill="#000" opacity="0.17"/><text x="25" y="191.8" font-family="Segoe UI, Helvetica, Arial, sans-serif" font-size="10.5" font-weight="400" fill="#334155">Integration</text><rect x="339.0" y="181.3" width="50.0" height="14" rx="4" fill="#8B5CF6"/><text x="14" y="220.3" font-family="Segoe UI, Helvetica, Arial, sans-serif" font-size="10.5" font-weight="400" fill="#334155">QA &amp; testing</text><rect x="389.0" y="209.8" width="50.0" height="14" rx="4" fill="#F59E0B"/><text x="14" y="248.8" font-family="Segoe UI, Helvetica, Arial, sans-serif" font-size="10.5" font-weight="400" fill="#334155">Sprint review</text><rect x="433.0" y="239.3" width="12" height="12" rx="2.5" transform="rotate(45 439.0 245.3)" fill="#0ea5e9"/><text x="14" y="277.3" font-family="Segoe UI, Helvetica, Arial, sans-serif" font-size="10.5" font-weight="400" fill="#334155">Retrospective</text><rect x="439.0" y="266.8" width="25.0" height="14" rx="4" fill="#64748B"/>
</svg>